Motion_kv04_l
version=1
nRows=12
nColumns=43
inDegrees=yes
endheader
time	pelvis_tilt	pelvis_list	pelvis_rotation	pelvis_tx	pelvis_ty	pelvis_tz	hip_flexion_r	hip_adduction_r	hip_rotation_r	knee_angle_r	ankle_angle_r	subtalar_angle_r	mtp_angle_r	hip_flexion_l	hip_adduction_l	hip_rotation_l	knee_angle_l	ankle_angle_l	subtalar_angle_l	mtp_angle_l	lumbar_extension	lumbar_bending	lumbar_rotation	neck_flexion	neck_lateral_bending	neck_rotation	arm_flex_r	arm_add_r	arm_rot_r	elbow_flex_r	pro_sup_r	wrist_flex_r	wrist_dev_r	hand_finger_flex_r	arm_flex_l	arm_add_l	arm_rot_l	elbow_flex_l	pro_sup_l	wrist_flex_l	wrist_dev_l	hand_finger_flex_l
      0.00250000	      0.24321989	    -27.59843545	     94.25095373	      0.01299551	      0.76561014	      1.87754776	     60.82117031	     -6.67167301	     -4.38705765	    -75.95464734	     34.52735969	      1.49427743	      3.31464343	     62.10706084	      0.52242375	     -2.84971775	    -74.78069523	     35.98936146	     -6.16840264	     -6.51296048	    -15.41375485	     -4.15195889	      6.17512500	     25.89651897	      4.95876376	     -9.99718288	     62.31368166	    -62.54968081	      3.01505262	    100.88938519	    137.81321562	     -1.88954925	    -11.11586269	    -16.96897948	     98.93490988	    -27.16695282	     44.48945278	     78.28650007	    141.26469790	    -36.44978630	      4.21850078	     47.31425269
      0.00500000	      0.30805518	    -27.64467041	     94.43023185	      0.01297748	      0.76299800	      1.87692216	     61.14448945	     -6.76436836	     -4.46537883	    -76.65585564	     34.65676227	      1.32739457	      3.33820379	     62.46648464	      0.66527666	     -2.65016325	    -75.42901892	     36.06788780	     -6.37573245	     -6.46360992	    -15.44592349	     -4.21239380	      6.19094291	     26.16668528	      5.45290064	     -9.93615337	     63.73517698	    -63.12280375	      3.90012497	    100.13352844	    137.99991511	     -1.17682433	    -11.52648723	    -16.73387468	    100.26870554	    -26.60489143	     45.48550162	     77.06687517	    141.11107488	    -35.85539407	      4.03857805	     47.54993351
      0.00750000	      0.47936041	    -27.54223076	     94.62152145	      0.01255690	      0.76054996	      1.87674618	     61.34265955	     -6.82664953	     -4.62020483	    -77.33514226	     34.70024179	      1.29213944	      3.55361223	     62.71989311	      0.71274633	     -2.47627543	    -76.07883827	     36.14003818	     -6.62311233	     -6.04603180	    -15.56826223	     -3.69695570	      5.07372897	     25.82840270	      4.98993318	     -8.69254668	     68.81285220	    -61.79757855	      8.58958159	     98.26218452	    137.69365458	      0.03795316	    -11.87847646	    -16.86176077	    101.35075103	    -28.10125824	     46.61357349	     76.58095960	    138.61482528	    -36.47779045	      3.41874603	     48.26202249
      0.01000000	      0.54220936	    -27.59607801	     94.66994159	      0.01289930	      0.75801752	      1.87609443	     61.68268228	     -6.76412130	     -4.58902954	    -78.01114079	     34.80516538	      1.33203806	      3.60635691	     63.05278899	      0.73466478	     -2.31355392	    -76.70772391	     36.28782695	     -6.70358365	     -5.97896318	    -15.59429445	     -3.80361916	      5.20504271	     26.13314846	      5.40258654	     -8.99092646	     70.24464709	    -62.29245883	      9.55594309	     97.56144477	    137.95673006	      0.62826672	    -12.04364040	    -16.68117593	    102.65657549	    -27.55316107	     47.63509459	     75.43524439	    138.71774358	    -35.85503643	      3.34528786	     48.48073604
      0.01250000	      0.71017808	    -27.44818626	     94.79117217	      0.01249037	      0.75579688	      1.87577716	     61.81656016	     -6.77830468	     -4.72193580	    -78.66510265	     34.85395037	      1.35460473	      3.94493573	     63.22859467	      0.73497227	     -2.15658054	    -77.33859668	     36.40298167	     -6.88893074	     -5.57137151	    -15.79248956	     -3.31956001	      4.38419698	     25.93563965	      4.89068587	     -8.06613859	     74.59032137	    -61.21900644	     13.63206888	     95.91179787	    137.54655162	      1.55865446	    -12.06096034	    -16.84511247	    103.68344939	    -28.72399097	     48.64808466	     74.93850547	    136.98961230	    -36.15678681	      2.90276297	     48.99155663
      0.01500000	      0.76184225	    -27.52773302	     94.85272866	      0.01273311	      0.75321091	      1.87516376	     62.17457693	     -6.74780052	     -4.67783948	    -79.31402020	     34.94279839	      1.37168493	      4.00444879	     63.57429775	      0.77320686	     -2.01659754	    -77.91885548	     36.54752345	     -6.93580057	     -5.50420360	    -15.79082619	     -3.42439080	      4.48143013	     26.24642945	      5.33198148	     -8.26509738	     76.02913472	    -61.62578489	     14.59849012	     95.18094646	    137.82963079	      2.24048197	    -12.34170831	    -16.60844560	    104.96792499	    -28.20773976	     49.71137472	     73.84510019	    137.03982231	    -35.51335592	      2.77345035	     49.19963903
      0.01750000	      0.89001447	    -27.39559454	     94.87501242	      0.01246272	      0.75094347	      1.87479387	     62.32702197	     -6.65458396	     -4.65113029	    -79.93702659	     34.96108211	      1.39064479	      4.31604290	     63.74156657	      0.73625897	     -1.90136153	    -78.54053860	     36.72293494	     -7.14959241	     -5.16649856	    -15.99788473	     -3.02492020	      3.87861018	     26.21104317	      4.81649878	     -7.71700474	     79.86929838	    -60.67383540	     18.07741587	     93.62896798	    137.41259570	      3.36501288	    -12.64187479	    -16.53006554	    105.94246856	    -29.18443958	     50.62922088	     73.34857296	    135.29733578	    -35.67817129	      2.13095782	     49.47993851
      0.02000000	      0.94786973	    -27.45680823	     94.99032572	      0.01269079	      0.74849355	      1.87405670	     62.63418638	     -6.69705117	     -4.72199692	    -80.57940958	     35.06587294	      1.38376914	      4.38591389	     64.06601784	      0.78809836	     -1.76022924	    -79.12741247	     36.80613350	     -7.13307311	     -5.09780025	    -15.99492527	     -3.09160523	      3.86273428	     26.41228912	      5.17692472	     -7.64649980	     81.24121690	    -60.90527799	     19.08013397	     92.91692032	    137.70377063	      3.99182163	    -12.85017015	    -16.31740291	    107.18355470	    -28.77481791	     51.77482977	     72.29893876	    135.35372889	    -34.99655087	      2.00129161	     49.70708663
      0.02250000	      1.14412889	    -27.29401565	     95.07425729	      0.01232199	      0.74628853	      1.87360570	     62.72961670	     -6.61002253	     -4.77989396	    -81.18240526	     35.09115716	      1.39622261	      4.69844321	     64.20170131	      0.74144406	     -1.57609458	    -79.74083389	     36.98187709	     -7.30387471	     -4.75413897	    -16.23274886	     -2.58277129	      3.22826181	     26.41161591	      4.58222140	     -7.06661288	     84.91343380	    -59.81199409	     22.45094974	     91.33550292	    137.40198123	      5.06634274	    -13.15070453	    -16.22410437	    108.09644500	    -29.86514390	     52.66843031	     71.97058351	    133.73031788	    -34.99391657	      1.41076760	     49.97110314
      0.02500000	      1.19899143	    -27.35326118	     95.18335692	      0.01254607	      0.74385714	      1.87281638	     63.01773862	     -6.64637747	     -4.83320257	    -81.78769824	     35.21428119	      1.36865412	      4.77072833	     64.51803704	      0.78697746	     -1.43661830	    -80.33023777	     37.07617068	     -7.27368134	     -4.67722853	    -16.22385430	     -2.63454294	      3.17485565	     26.57077481	      4.91283552	     -6.96104377	     86.25639818	    -59.91795302	     23.45015965	     90.60975280	    137.65790914	      5.75732838	    -13.38098423	    -15.97736021	    109.27863499	    -29.54159407	     53.82221866	     71.01048391	    133.80043841	    -34.29422734	      1.24986914	     50.19919395
      0.02750000	      1.22663878	    -27.38102721	     95.20482141	      0.01270648	      0.74148278	      1.87208858	     63.29730230	     -6.62553085	     -4.80462395	    -82.39850685	     35.30623501	      1.33218816	      4.84953544	     64.78098407	      0.79328338	     -1.36159131	    -80.89420310	     37.23137992	     -7.28334869	     -4.57396243	    -16.26165236	     -2.64944743	      3.10280977	     26.73490189	      5.09575938	     -6.90460344	     88.02789266	    -59.87753603	     24.86621086	     89.74006727	    137.76281868	      6.72749035	    -13.78927350	    -15.63328808	    110.36960987	    -29.42539942	     54.87713023	     70.16972537	    133.54352049	    -33.67290005	      0.90570913	     50.40781356
      0.03000000	      1.52329995	    -27.11725980	     95.37171964	      0.01203306	      0.73950056	      1.87147270	     63.21265146	     -6.54003380	     -4.98035150	    -82.91154789	     35.36825436	      1.35074728	      5.13889587	     64.82193837	      0.75980088	     -1.06558532	    -81.53150095	     37.38379147	     -7.41773015	     -4.18386362	    -16.59839876	     -1.89435058	      2.35651881	     26.72476229	      4.14452903	     -6.14608452	     91.66026908	    -58.39068024	     28.27084715	     88.03190697	    137.29887913	      7.78282736	    -13.97560544	    -15.59476942	    111.08929212	    -30.85020336	     55.62531304	     70.11635277	    131.68455075	    -33.55482816	      0.16817724	     50.58903768
